# xmcd
#
# Track frame offsets:
# 150
# 9239
# 25730
# 45881
# 67386
# 86865
# 103601
# 121973
# 137330
# 152597
# 167384
# 184218
# 204808
# 222686
# 238775
# 252343
# 265946
# 279424
# 294773
# 316091
#
# Disc length: 4433 seconds
#
#
# Revision: 0
# Processed by: cddbd v1.5.2PL0 Copyright (c) Steve Scherf et al.
# Submitted via: FreeRIP 2.945 
#
DISCID=0f114f14
DTITLE=Snoop Dogg  - Tha Blue Carpet Treatment 
DYEAR=2007
DGENRE=Rap
TTITLE0=1. Intrology
TTITLE1=2. Think About It
TTITLE2=3. Crazy
TTITLE3=4. Vato
TTITLE4=5. That's That Shit
TTITLE5=6. Candy (Drippin' Like Water)
TTITLE6=7. Get A Light
TTITLE7=8. Gangbangn 101
TTITLE8=9. Boss Life
TTITLE9=10. LAX
TTITLE10=11. 10 Lil' Crips
TTITLE11=12. Round Here
TTITLE12=13. A Bitch I Knew
TTITLE13=14. Like This
TTITLE14=15. Which One Of You
TTITLE15=16. I Wanna Fuck You
TTITLE16=17. Psst!
TTITLE17=18. Beat Up On Yo Pads
TTITLE18=19. Don't Stop
TTITLE19=20. Imagine
EXTD=
EXTT0=
EXTT1=
EXTT2=
EXTT3=
EXTT4=
EXTT5=
EXTT6=
EXTT7=
EXTT8=
EXTT9=
EXTT10=
EXTT11=
EXTT12=
EXTT13=
EXTT14=
EXTT15=
EXTT16=
EXTT17=
EXTT18=
EXTT19=
PLAYORDER=
